<?xml version="1.0" standalone="no"?>
<!DOCTYPE svg PUBLIC "-//W3C//DTD SVG 20010904//EN"
 "http://www.w3.org/TR/2001/REC-SVG-20010904/DTD/svg10.dtd">
<svg version="1.0" xmlns="http://www.w3.org/2000/svg"
 width="512.000000pt" height="512.000000pt" viewBox="0 0 512.000000 512.000000"
 preserveAspectRatio="xMidYMid meet">
<metadata>
Created by potrace 1.14, written by Peter Selinger 2001-2017
</metadata>
<g transform="translate(0.000000,512.000000) scale(0.100000,-0.100000)"
fill="#000000" stroke="none">
<path d="M0 2560 l0 -2560 2560 0 2560 0 0 1563 0 1562 -265 265 c-241 241
-265 268 -265 298 0 49 -45 92 -357 336 -48 38 -95 76 -103 85 -18 19 -236
204 -288 243 -19 15 -49 42 -68 60 -38 38 -106 62 -164 56 l-40 -4 0 328 0
328 -1785 0 -1785 0 0 -2560z m3182 1300 c-1 -355 -5 -684 -9 -732 l-6 -88 57
0 56 0 0 83 0 83 54 18 53 18 51 -38 c28 -22 51 -42 51 -45 1 -4 -14 -17 -33
-30 -36 -24 -36 -29 -2 -74 14 -20 16 -19 54 18 38 38 41 38 64 23 23 -15 26
-15 46 7 l22 23 -24 23 c-20 19 -23 28 -15 48 43 113 -87 217 -199 159 -29
-15 -31 -14 -76 21 -25 19 -46 39 -46 44 0 4 11 16 24 26 l23 19 -23 34 c-16
23 -24 49 -24 77 0 50 13 57 111 56 154 -2 286 -108 325 -262 26 -104 3 -207
-67 -293 l-30 -38 25 0 c21 0 62 47 244 278 120 152 222 282 226 289 4 7 -2
21 -13 32 -27 27 -37 68 -24 100 6 14 13 33 16 41 4 11 -52 60 -194 171 l-201
156 -25 -23 c-30 -28 -96 -33 -129 -10 -19 13 -26 6 -134 -130 -62 -80 -118
-148 -123 -151 -7 -4 -8 22 -3 72 l7 78 146 184 c80 101 149 183 153 181 13
-5 739 -572 739 -578 0 -3 -121 -158 -268 -345 l-269 -340 227 -5 c144 -3 236
-9 253 -17 66 -30 128 -106 143 -178 l6 -30 -14 30 c-23 50 -67 95 -121 123
l-51 27 -1535 -4 c-1658 -4 -1563 0 -1636 -56 -18 -14 -46 -53 -63 -86 -34
-67 -40 -61 -16 17 19 65 63 116 127 148 45 23 64 26 151 26 75 0 98 3 94 13
-115 285 -347 876 -347 883 0 14 871 357 880 347 4 -4 116 -286 250 -625 l243
-618 347 0 347 0 6 383 c4 210 7 491 7 625 l0 242 -26 0 c-34 0 -94 59 -94 92
l0 25 -157 6 c-87 4 -204 7 -260 7 -97 0 -103 -1 -103 -21 0 -48 -47 -98 -92
-99 l-28 0 -1 -92 c-1 -51 -4 -232 -8 -403 l-6 -309 -42 107 -43 108 0 400 0
399 477 -2 478 -3 -3 -645z m-327 28 c258 -133 255 -482 -5 -619 -39 -20 -59
-24 -145 -24 -84 0 -107 4 -146 23 -70 34 -122 84 -159 153 -80 151 -34 343
105 439 73 50 110 60 210 57 73 -3 99 -8 140 -29z m469 -569 c-3 -5 -14 -9
-25 -9 -14 0 -19 7 -19 25 0 25 1 25 25 9 14 -9 22 -20 19 -25z m196 -60 c7
-11 9 -32 6 -46 l-7 -24 -42 32 c-23 18 -44 34 -46 35 -12 9 16 24 44 24 25 0
37 -6 45 -21z m598 -531 l2 -177 -52 -6 c-29 -3 -336 -5 -683 -3 l-630 3 -3
170 c-1 93 0 175 2 182 4 11 136 13 683 11 l678 -3 3 -177z m-1672 -281 c1 -1
-1 -80 -4 -174 l-5 -173 -493 0 -493 0 52 -52 c34 -34 57 -68 65 -94 19 -64
14 -84 -9 -34 -25 56 -53 86 -103 112 -37 19 -55 20 -355 16 -277 -3 -320 -6
-348 -21 -45 -24 -85 -77 -105 -139 -14 -45 -17 -49 -17 -22 -2 84 60 193 125
220 20 8 70 14 124 14 l90 0 0 173 c0 96 3 177 8 182 6 7 1462 -1 1468 -8z
m482 -289 c17 -17 17 -289 0 -306 -17 -17 -289 -17 -306 0 -17 17 -17 289 0
306 8 8 57 12 153 12 96 0 145 -4 153 -12z m440 0 c17 -17 17 -289 0 -306 -17
-17 -289 -17 -306 0 -17 17 -17 289 0 306 8 8 57 12 153 12 96 0 145 -4 153
-12z m440 0 c17 -17 17 -289 0 -306 -17 -17 -289 -17 -306 0 -17 17 -17 289 0
306 8 8 57 12 153 12 96 0 145 -4 153 -12z m440 0 c17 -17 17 -289 0 -306 -17
-17 -289 -17 -306 0 -17 17 -17 289 0 306 8 8 57 12 153 12 96 0 145 -4 153
-12z m-3158 -261 c0 -2 -10 -12 -22 -23 l-23 -19 19 23 c18 21 26 27 26 19z
m1848 -412 c2 -132 1 -151 -15 -162 -27 -20 -277 -18 -297 3 -13 12 -16 41
-16 153 0 95 4 141 12 149 9 9 54 12 163 10 l150 -3 3 -150z m440 0 c2 -132 1
-151 -15 -162 -27 -20 -277 -18 -297 3 -13 12 -16 41 -16 153 0 95 4 141 12
149 9 9 54 12 163 10 l150 -3 3 -150z m440 0 c2 -132 1 -151 -15 -162 -27 -20
-277 -18 -297 3 -13 12 -16 41 -16 153 0 95 4 141 12 149 9 9 54 12 163 10
l150 -3 3 -150z m430 143 c17 -17 17 -809 0 -826 -17 -17 -289 -17 -306 0 -17
17 -17 809 0 826 8 8 57 12 153 12 96 0 145 -4 153 -12z m-1806 -410 c-2 -95
-4 -173 -5 -174 -1 -1 -330 -3 -732 -5 l-730 -4 -3 158 -3 157 228 0 c207 0
232 2 263 19 33 19 59 20 510 20 l475 1 -3 -172z m487 -112 c8 -9 11 -61 9
-162 l-3 -149 -149 -3 c-101 -2 -153 1 -162 9 -22 18 -20 282 2 303 21 22 285
24 303 2z m439 2 c17 -17 17 -289 0 -306 -17 -17 -289 -17 -306 0 -8 8 -12 56
-12 149 0 112 3 141 16 153 12 13 41 16 153 16 93 0 141 -4 149 -12z m440 0
c17 -17 17 -289 0 -306 -17 -17 -289 -17 -306 0 -8 8 -12 57 -12 155 0 125 2
143 18 152 25 15 285 14 300 -1z"/>
<path d="M1474 4028 l-231 -91 5 -43 c5 -50 -14 -88 -53 -106 l-24 -11 20 -51
c11 -28 76 -194 145 -368 118 -299 127 -318 151 -318 13 0 23 3 21 8 -66 129
-77 190 -53 284 32 129 124 221 254 254 80 20 147 13 227 -25 75 -35 145 -112
174 -189 31 -80 25 -195 -13 -269 -15 -29 -27 -55 -27 -58 0 -3 47 -5 105 -5
58 0 105 3 104 8 0 4 -89 230 -198 502 l-197 495 -32 -3 c-43 -3 -97 21 -117
52 -10 14 -20 26 -24 26 -3 0 -110 -42 -237 -92z"/>
<path d="M1825 3426 c-44 -20 -66 -49 -80 -108 -11 -51 -13 -53 -66 -74 l-54
-22 -9 34 c-9 30 -13 34 -44 34 l-35 0 5 -50 c5 -47 3 -51 -19 -56 -21 -6 -23
-11 -18 -33 9 -37 20 -45 45 -31 19 10 26 8 54 -19 43 -41 82 -48 139 -23 49
22 64 42 81 110 11 41 15 46 70 68 33 13 61 22 64 20 2 -2 6 -23 9 -45 5 -36
9 -41 32 -41 48 0 55 12 42 64 -12 50 -9 66 14 66 21 0 27 17 14 42 -6 13 -13
24 -14 26 -1 1 -14 -2 -28 -7 -20 -8 -29 -6 -43 11 -43 46 -102 59 -159 34z
m93 -82 c12 -8 22 -18 22 -23 0 -9 -99 -45 -106 -38 -11 11 10 59 30 67 29 12
29 12 54 -6z m-185 -149 c-7 -33 -26 -47 -60 -43 -43 5 -41 32 4 51 54 22 61
21 56 -8z"/>
<path d="M2743 3711 c-18 -11 -44 -38 -59 -61 -26 -39 -28 -40 -87 -40 l-60 0
7 39 c6 37 5 40 -24 46 -39 9 -47 2 -55 -45 -6 -36 -10 -40 -36 -40 -26 0 -29
-4 -29 -30 0 -26 4 -30 28 -30 24 0 31 -6 44 -39 41 -103 180 -106 239 -6 21
35 22 35 91 35 l70 0 -6 -27 c-4 -16 -9 -35 -12 -44 -3 -11 6 -19 31 -27 34
-10 37 -9 46 14 5 14 9 31 9 39 0 29 13 45 36 45 21 0 24 5 24 35 0 31 -3 35
-27 35 -23 0 -31 7 -44 39 -20 47 -55 72 -112 78 -30 3 -51 -1 -74 -16z m109
-88 c33 -30 23 -43 -37 -43 -59 0 -68 10 -38 42 20 22 51 23 75 1z m-212 -60
c0 -15 -35 -43 -54 -43 -26 0 -41 10 -49 33 -6 15 0 17 48 17 30 0 55 -3 55
-7z"/>
<path d="M3798 2819 c-33 -24 -37 -44 -8 -36 18 5 20 0 20 -49 0 -47 -2 -54
-20 -54 -11 0 -20 -7 -20 -15 0 -12 13 -15 55 -15 42 0 55 3 55 15 0 8 -9 15
-20 15 -18 0 -20 7 -20 80 0 44 -3 80 -7 80 -5 0 -20 -10 -35 -21z"/>
<path d="M3951 2783 c-52 -72 -52 -83 -1 -83 36 0 40 -2 40 -25 0 -16 6 -25
15 -25 9 0 15 9 15 25 0 16 6 25 15 25 8 0 15 7 15 15 0 8 -7 15 -15 15 -12 0
-15 13 -15 55 0 72 -17 72 -69 -2z m36 -50 c-3 -3 -13 -3 -21 -1 -15 3 -15 6
1 28 l18 25 3 -23 c2 -13 1 -26 -1 -29z"/>
<path d="M3550 2821 c0 -6 14 -11 31 -13 l31 -3 -22 -28 c-12 -15 -21 -29 -19
-31 2 -1 16 -7 32 -14 15 -6 27 -18 27 -26 0 -18 -29 -35 -54 -33 -11 1 -21
-4 -23 -10 -6 -18 67 -17 91 0 26 19 18 78 -12 93 -20 10 -21 12 -7 24 9 7 21
22 26 32 9 16 5 18 -46 18 -30 0 -55 -4 -55 -9z"/>
<path d="M3703 2645 c1 -40 1 -40 21 -19 22 22 21 54 -3 54 -15 0 -19 -7 -18
-35z"/>
</g>
</svg>
